<svg xmlns="http://www.w3.org/2000/svg" xmlns:xlink="http://www.w3.org/1999/xlink" xmlns:sketch="http://www.bohemiancoding.com/sketch/ns" viewBox="0 0 100 125" version="1.1" x="0px" y="0px"><title>Comments Icon</title><desc>Created with Sketch.</desc><g stroke="none" stroke-width="1" fill="none" fill-rule="evenodd" sketch:type="MSPage"><g sketch:type="MSArtboardGroup" stroke="#000000" fill="#000000"><path d="M50,83 C68.2253967,83 83,68.2253967 83,50 C83,31.7746033 68.2253967,17 50,17 C31.7746033,17 17,31.7746033 17,50 C17,68.2253967 31.7746033,83 50,83 Z M35.5625,35.5625 C35.5625,33.2843254 37.405132,31.4375 39.6867521,31.4375 L62.3757479,31.4375 C64.6535094,31.4375 66.5,33.288961 66.5,35.5625 C66.5,37.8406746 64.657368,39.6875 62.3757479,39.6875 L39.6867521,39.6875 C37.4089906,39.6875 35.5625,37.836039 35.5625,35.5625 Z M35.5625,64.4375 C35.5625,62.1593254 37.405132,60.3125 39.6867521,60.3125 L62.3757479,60.3125 C64.6535094,60.3125 66.5,62.163961 66.5,64.4375 C66.5,66.7156746 64.657368,68.5625 62.3757479,68.5625 L39.6867521,68.5625 C37.4089906,68.5625 35.5625,66.711039 35.5625,64.4375 Z M27.3125,50 C27.3125,47.7218254 29.157547,45.875 31.4392825,45.875 L70.6232175,45.875 C72.9023766,45.875 74.75,47.726461 74.75,50 C74.75,52.2781746 72.904953,54.125 70.6232175,54.125 L31.4392825,54.125 C29.1601234,54.125 27.3125,52.273539 27.3125,50 Z" sketch:type="MSShapeGroup"/></g></g><text x="0" y="115" fill="#000000" font-size="5px" font-weight="bold" font-family="'Helvetica Neue', Helvetica, Arial-Unicode, Arial, Sans-serif">Created by Devon Thomas</text><text x="0" y="120" fill="#000000" font-size="5px" font-weight="bold" font-family="'Helvetica Neue', Helvetica, Arial-Unicode, Arial, Sans-serif">from the Noun Project</text></svg>